<svg width="208" height="20" viewBox="0 0 208 20" fill="none" xmlns="http://www.w3.org/2000/svg">
<g clip-path="url(#clip0_3259_93582)">
<mask id="mask0_3259_93582" style="mask-type:luminance" maskUnits="userSpaceOnUse" x="-1" y="-1" width="35" height="22">
<path d="M0 5.91278e-05H32.9999V20H0V5.91278e-05Z" fill="white" stroke="white" stroke-width="2" stroke-linecap="round" stroke-linejoin="round"/>
</mask>
<g mask="url(#mask0_3259_93582)">
<path d="M1.28906 7.42189V12.5781" stroke="#0984E3" stroke-width="2" stroke-miterlimit="10" stroke-linecap="round" stroke-linejoin="round"/>
</g>
<mask id="mask1_3259_93582" style="mask-type:luminance" maskUnits="userSpaceOnUse" x="-1" y="-1" width="35" height="22">
<path d="M0 5.91278e-05H32.9999V20H0V5.91278e-05Z" fill="white" stroke="white" stroke-width="2" stroke-linecap="round" stroke-linejoin="round"/>
</mask>
<g mask="url(#mask1_3259_93582)">
<path d="M11.4062 1.17193V18.8281" stroke="#0984E3" stroke-width="2" stroke-miterlimit="10" stroke-linecap="round" stroke-linejoin="round"/>
</g>
<path d="M16.4375 7.42189V12.5781" stroke="#0984E3" stroke-width="2" stroke-miterlimit="10" stroke-linecap="round" stroke-linejoin="round"/>
<path d="M21.5312 3.12504V16.875" stroke="#0984E3" stroke-width="2" stroke-miterlimit="10" stroke-linecap="round" stroke-linejoin="round"/>
<mask id="mask2_3259_93582" style="mask-type:luminance" maskUnits="userSpaceOnUse" x="-1" y="-1" width="35" height="22">
<path d="M0 5.91278e-05H32.9999V20H0V5.91278e-05Z" fill="white" stroke="white" stroke-width="2" stroke-linecap="round" stroke-linejoin="round"/>
</mask>
<g mask="url(#mask2_3259_93582)">
<path d="M31.7109 7.42189V12.9688" stroke="#0984E3" stroke-width="2" stroke-miterlimit="10" stroke-linecap="round" stroke-linejoin="round"/>
<path d="M26.6172 1.17193V18.8281" stroke="#0984E3" stroke-width="2" stroke-miterlimit="10" stroke-linecap="round" stroke-linejoin="round"/>
</g>
<path d="M6.38281 4.29691V15.7031" stroke="#0984E3" stroke-width="2" stroke-miterlimit="10" stroke-linecap="round" stroke-linejoin="round"/>
</g>
<g clip-path="url(#clip1_3259_93582)">
<mask id="mask3_3259_93582" style="mask-type:luminance" maskUnits="userSpaceOnUse" x="34" y="-1" width="35" height="22">
<path d="M35 5.91278e-05H67.9999V20H35V5.91278e-05Z" fill="white" stroke="white" stroke-width="2" stroke-linecap="round" stroke-linejoin="round"/>
</mask>
<g mask="url(#mask3_3259_93582)">
<path d="M36.2891 7.42189V12.5781" stroke="#0984E3" stroke-width="2" stroke-miterlimit="10" stroke-linecap="round" stroke-linejoin="round"/>
</g>
<mask id="mask4_3259_93582" style="mask-type:luminance" maskUnits="userSpaceOnUse" x="34" y="-1" width="35" height="22">
<path d="M35 5.91278e-05H67.9999V20H35V5.91278e-05Z" fill="white" stroke="white" stroke-width="2" stroke-linecap="round" stroke-linejoin="round"/>
</mask>
<g mask="url(#mask4_3259_93582)">
<path d="M46.4062 1.17193V18.8281" stroke="#0984E3" stroke-width="2" stroke-miterlimit="10" stroke-linecap="round" stroke-linejoin="round"/>
</g>
<path d="M51.4375 7.42189V12.5781" stroke="#0984E3" stroke-width="2" stroke-miterlimit="10" stroke-linecap="round" stroke-linejoin="round"/>
<path d="M56.5312 3.12504V16.875" stroke="#0984E3" stroke-width="2" stroke-miterlimit="10" stroke-linecap="round" stroke-linejoin="round"/>
<mask id="mask5_3259_93582" style="mask-type:luminance" maskUnits="userSpaceOnUse" x="34" y="-1" width="35" height="22">
<path d="M35 5.91278e-05H67.9999V20H35V5.91278e-05Z" fill="white" stroke="white" stroke-width="2" stroke-linecap="round" stroke-linejoin="round"/>
</mask>
<g mask="url(#mask5_3259_93582)">
<path d="M66.7109 7.42189V12.9688" stroke="#0984E3" stroke-width="2" stroke-miterlimit="10" stroke-linecap="round" stroke-linejoin="round"/>
<path d="M61.6172 1.17193V18.8281" stroke="#0984E3" stroke-width="2" stroke-miterlimit="10" stroke-linecap="round" stroke-linejoin="round"/>
</g>
<path d="M41.3828 4.29691V15.7031" stroke="#0984E3" stroke-width="2" stroke-miterlimit="10" stroke-linecap="round" stroke-linejoin="round"/>
</g>
<g clip-path="url(#clip2_3259_93582)">
<mask id="mask6_3259_93582" style="mask-type:luminance" maskUnits="userSpaceOnUse" x="69" y="-1" width="35" height="22">
<path d="M70 5.91278e-05H103V20H70V5.91278e-05Z" fill="white" stroke="white" stroke-width="2" stroke-linecap="round" stroke-linejoin="round"/>
</mask>
<g mask="url(#mask6_3259_93582)">
<path d="M71.2891 7.42189V12.5781" stroke="#0984E3" stroke-width="2" stroke-miterlimit="10" stroke-linecap="round" stroke-linejoin="round"/>
</g>
<mask id="mask7_3259_93582" style="mask-type:luminance" maskUnits="userSpaceOnUse" x="69" y="-1" width="35" height="22">
<path d="M70 5.91278e-05H103V20H70V5.91278e-05Z" fill="white" stroke="white" stroke-width="2" stroke-linecap="round" stroke-linejoin="round"/>
</mask>
<g mask="url(#mask7_3259_93582)">
<path d="M81.4062 1.17193V18.8281" stroke="#0984E3" stroke-width="2" stroke-miterlimit="10" stroke-linecap="round" stroke-linejoin="round"/>
</g>
<path d="M86.4375 7.42189V12.5781" stroke="#0984E3" stroke-width="2" stroke-miterlimit="10" stroke-linecap="round" stroke-linejoin="round"/>
<path d="M91.5312 3.12504V16.875" stroke="#0984E3" stroke-width="2" stroke-miterlimit="10" stroke-linecap="round" stroke-linejoin="round"/>
<mask id="mask8_3259_93582" style="mask-type:luminance" maskUnits="userSpaceOnUse" x="69" y="-1" width="35" height="22">
<path d="M70 5.91278e-05H103V20H70V5.91278e-05Z" fill="white" stroke="white" stroke-width="2" stroke-linecap="round" stroke-linejoin="round"/>
</mask>
<g mask="url(#mask8_3259_93582)">
<path d="M101.711 7.42189V12.9688" stroke="#0984E3" stroke-width="2" stroke-miterlimit="10" stroke-linecap="round" stroke-linejoin="round"/>
<path d="M96.6172 1.17193V18.8281" stroke="#0984E3" stroke-width="2" stroke-miterlimit="10" stroke-linecap="round" stroke-linejoin="round"/>
</g>
<path d="M76.3828 4.29691V15.7031" stroke="#0984E3" stroke-width="2" stroke-miterlimit="10" stroke-linecap="round" stroke-linejoin="round"/>
</g>
<g clip-path="url(#clip3_3259_93582)">
<mask id="mask9_3259_93582" style="mask-type:luminance" maskUnits="userSpaceOnUse" x="104" y="-1" width="35" height="22">
<path d="M105 5.91278e-05H138V20H105V5.91278e-05Z" fill="white" stroke="white" stroke-width="2" stroke-linecap="round" stroke-linejoin="round"/>
</mask>
<g mask="url(#mask9_3259_93582)">
<path d="M106.289 7.42189V12.5781" stroke="#0984E3" stroke-width="2" stroke-miterlimit="10" stroke-linecap="round" stroke-linejoin="round"/>
</g>
<mask id="mask10_3259_93582" style="mask-type:luminance" maskUnits="userSpaceOnUse" x="104" y="-1" width="35" height="22">
<path d="M105 5.91278e-05H138V20H105V5.91278e-05Z" fill="white" stroke="white" stroke-width="2" stroke-linecap="round" stroke-linejoin="round"/>
</mask>
<g mask="url(#mask10_3259_93582)">
<path d="M116.406 1.17193V18.8281" stroke="#0984E3" stroke-width="2" stroke-miterlimit="10" stroke-linecap="round" stroke-linejoin="round"/>
</g>
<path d="M121.438 7.42189V12.5781" stroke="#0984E3" stroke-width="2" stroke-miterlimit="10" stroke-linecap="round" stroke-linejoin="round"/>
<path d="M126.531 3.12504V16.875" stroke="#0984E3" stroke-width="2" stroke-miterlimit="10" stroke-linecap="round" stroke-linejoin="round"/>
<mask id="mask11_3259_93582" style="mask-type:luminance" maskUnits="userSpaceOnUse" x="104" y="-1" width="35" height="22">
<path d="M105 5.91278e-05H138V20H105V5.91278e-05Z" fill="white" stroke="white" stroke-width="2" stroke-linecap="round" stroke-linejoin="round"/>
</mask>
<g mask="url(#mask11_3259_93582)">
<path d="M136.711 7.42189V12.9688" stroke="#0984E3" stroke-width="2" stroke-miterlimit="10" stroke-linecap="round" stroke-linejoin="round"/>
<path d="M131.617 1.17193V18.8281" stroke="#0984E3" stroke-width="2" stroke-miterlimit="10" stroke-linecap="round" stroke-linejoin="round"/>
</g>
<path d="M111.383 4.29691V15.7031" stroke="#0984E3" stroke-width="2" stroke-miterlimit="10" stroke-linecap="round" stroke-linejoin="round"/>
</g>
<g clip-path="url(#clip4_3259_93582)">
<mask id="mask12_3259_93582" style="mask-type:luminance" maskUnits="userSpaceOnUse" x="139" y="-1" width="35" height="22">
<path d="M140 5.91278e-05H173V20H140V5.91278e-05Z" fill="white" stroke="white" stroke-width="2" stroke-linecap="round" stroke-linejoin="round"/>
</mask>
<g mask="url(#mask12_3259_93582)">
<path d="M141.289 7.42189V12.5781" stroke="#0984E3" stroke-width="2" stroke-miterlimit="10" stroke-linecap="round" stroke-linejoin="round"/>
</g>
<mask id="mask13_3259_93582" style="mask-type:luminance" maskUnits="userSpaceOnUse" x="139" y="-1" width="35" height="22">
<path d="M140 5.91278e-05H173V20H140V5.91278e-05Z" fill="white" stroke="white" stroke-width="2" stroke-linecap="round" stroke-linejoin="round"/>
</mask>
<g mask="url(#mask13_3259_93582)">
<path d="M151.406 1.17193V18.8281" stroke="#0984E3" stroke-width="2" stroke-miterlimit="10" stroke-linecap="round" stroke-linejoin="round"/>
</g>
<path d="M156.438 7.42189V12.5781" stroke="#0984E3" stroke-width="2" stroke-miterlimit="10" stroke-linecap="round" stroke-linejoin="round"/>
<path d="M161.531 3.12504V16.875" stroke="#0984E3" stroke-width="2" stroke-miterlimit="10" stroke-linecap="round" stroke-linejoin="round"/>
<mask id="mask14_3259_93582" style="mask-type:luminance" maskUnits="userSpaceOnUse" x="139" y="-1" width="35" height="22">
<path d="M140 5.91278e-05H173V20H140V5.91278e-05Z" fill="white" stroke="white" stroke-width="2" stroke-linecap="round" stroke-linejoin="round"/>
</mask>
<g mask="url(#mask14_3259_93582)">
<path d="M171.711 7.42189V12.9688" stroke="#0984E3" stroke-width="2" stroke-miterlimit="10" stroke-linecap="round" stroke-linejoin="round"/>
<path d="M166.617 1.17193V18.8281" stroke="#0984E3" stroke-width="2" stroke-miterlimit="10" stroke-linecap="round" stroke-linejoin="round"/>
</g>
<path d="M146.383 4.29691V15.7031" stroke="#0984E3" stroke-width="2" stroke-miterlimit="10" stroke-linecap="round" stroke-linejoin="round"/>
</g>
<g clip-path="url(#clip5_3259_93582)">
<mask id="mask15_3259_93582" style="mask-type:luminance" maskUnits="userSpaceOnUse" x="174" y="-1" width="35" height="22">
<path d="M175 5.91278e-05H208V20H175V5.91278e-05Z" fill="white" stroke="white" stroke-width="2" stroke-linecap="round" stroke-linejoin="round"/>
</mask>
<g mask="url(#mask15_3259_93582)">
<path d="M176.289 7.42189V12.5781" stroke="#0984E3" stroke-width="2" stroke-miterlimit="10" stroke-linecap="round" stroke-linejoin="round"/>
</g>
<mask id="mask16_3259_93582" style="mask-type:luminance" maskUnits="userSpaceOnUse" x="174" y="-1" width="35" height="22">
<path d="M175 5.91278e-05H208V20H175V5.91278e-05Z" fill="white" stroke="white" stroke-width="2" stroke-linecap="round" stroke-linejoin="round"/>
</mask>
<g mask="url(#mask16_3259_93582)">
<path d="M186.406 1.17193V18.8281" stroke="#0984E3" stroke-width="2" stroke-miterlimit="10" stroke-linecap="round" stroke-linejoin="round"/>
</g>
<path d="M191.438 7.42189V12.5781" stroke="#0984E3" stroke-width="2" stroke-miterlimit="10" stroke-linecap="round" stroke-linejoin="round"/>
<path d="M196.531 3.12504V16.875" stroke="#0984E3" stroke-width="2" stroke-miterlimit="10" stroke-linecap="round" stroke-linejoin="round"/>
<mask id="mask17_3259_93582" style="mask-type:luminance" maskUnits="userSpaceOnUse" x="174" y="-1" width="35" height="22">
<path d="M175 5.91278e-05H208V20H175V5.91278e-05Z" fill="white" stroke="white" stroke-width="2" stroke-linecap="round" stroke-linejoin="round"/>
</mask>
<g mask="url(#mask17_3259_93582)">
<path d="M206.711 7.42189V12.9688" stroke="#0984E3" stroke-width="2" stroke-miterlimit="10" stroke-linecap="round" stroke-linejoin="round"/>
<path d="M201.617 1.17193V18.8281" stroke="#0984E3" stroke-width="2" stroke-miterlimit="10" stroke-linecap="round" stroke-linejoin="round"/>
</g>
<path d="M181.383 4.29691V15.7031" stroke="#0984E3" stroke-width="2" stroke-miterlimit="10" stroke-linecap="round" stroke-linejoin="round"/>
</g>
<defs>
<clipPath id="clip0_3259_93582">
<rect width="33" height="20" fill="white"/>
</clipPath>
<clipPath id="clip1_3259_93582">
<rect width="33" height="20" fill="white" transform="translate(35)"/>
</clipPath>
<clipPath id="clip2_3259_93582">
<rect width="33" height="20" fill="white" transform="translate(70)"/>
</clipPath>
<clipPath id="clip3_3259_93582">
<rect width="33" height="20" fill="white" transform="translate(105)"/>
</clipPath>
<clipPath id="clip4_3259_93582">
<rect width="33" height="20" fill="white" transform="translate(140)"/>
</clipPath>
<clipPath id="clip5_3259_93582">
<rect width="33" height="20" fill="white" transform="translate(175)"/>
</clipPath>
</defs>
</svg>
