<svg width="120" height="120" viewBox="0 0 120 120" fill="none" xmlns="http://www.w3.org/2000/svg">
<rect width="120" height="120" rx="9.6" fill="#1F1F1F"/>
<path d="M19.8405 81.7404C7.09052 63.9864 23.5425 53.3484 23.6985 53.2344L25.6725 55.9764C25.1325 56.3664 12.2805 65.4204 22.5825 79.7664L24.5025 78.3864L24.2745 85.4424L17.9865 83.0664L19.8345 81.7404H19.8405Z" fill="#A1A1A1"/>
<path d="M98.1442 37.2751C113.174 53.1391 98.3182 65.9071 98.1742 66.0451L95.8462 63.5911C96.3322 63.1291 107.84 52.4251 95.6902 39.5971L93.9742 41.2231L93.2422 34.2031L99.7942 35.7091L98.1382 37.2751H98.1442Z" fill="#A1A1A1"/>
<path d="M36.1877 53.7794C34.8017 53.7794 33.6797 54.9014 33.6797 56.2874V83.0954C33.6797 84.2834 35.1377 84.8534 35.9417 83.9774L43.6277 77.7494C44.1017 77.2334 44.7737 76.9394 45.4697 76.9394H61.3277C62.7137 76.9394 63.8357 75.8174 63.8357 74.4314V56.2814C63.8357 54.8954 62.7137 53.7734 61.3277 53.7734H36.1817L36.1877 53.7794Z" fill="#0072F5"/>
<path d="M85.0386 38.4748C86.4246 38.4748 87.5466 39.5968 87.5466 40.9828V67.7908C87.5466 68.9788 86.0886 69.5488 85.2846 68.6728L77.5986 62.4447C77.1246 61.9288 76.4526 61.6347 75.7566 61.6347H59.8986C58.5126 61.6347 57.3906 60.5128 57.3906 59.1268V40.9768C57.3906 39.5908 58.5126 38.4688 59.8986 38.4688H85.0446L85.0386 38.4748Z" fill="#1ABC9C"/>
<path d="M80.5358 44.8829H74.3498V42.2969H71.9438V44.8829H65.7578V47.2889H75.5258V47.7449C75.5258 48.1829 75.3278 48.7469 74.9498 49.3649C74.5118 50.0909 73.9178 50.7269 73.1858 51.2609L72.6338 51.6689L72.5618 51.6149L72.5378 51.5969C72.0278 51.2249 71.6138 50.7749 71.3078 50.2709C71.0618 49.8629 70.9238 49.4909 70.9238 49.2269H68.5178C68.5178 49.9469 68.7638 50.7209 69.2498 51.5189C69.6158 52.1189 70.0778 52.6649 70.6298 53.1389L66.7058 56.0189L68.1278 57.9569L72.5918 54.6809L75.9878 57.3209L77.4638 55.4249L74.6078 53.2049C75.5918 52.4789 76.3958 51.6089 77.0018 50.6189C77.6138 49.6109 77.9258 48.6449 77.9258 47.7509V47.2949H80.5358V44.8889V44.8829Z" fill="#F6F2E9"/>
</svg>
