<svg width="826" height="826" viewBox="0 0 826 826" fill="none" xmlns="http://www.w3.org/2000/svg">
<rect width="826" height="826" rx="181" fill="url(#paint0_linear_1005_2431)"/>
<path d="M95.082 411.391C95.082 388.511 94.8975 365.63 95.082 342.75C95.1784 327.985 98.4265 313.408 104.612 299.981C110.798 286.555 119.78 274.583 130.966 264.857C142.152 255.131 155.288 247.871 169.507 243.557C183.726 239.243 198.704 237.972 213.454 239.829C236.747 242.637 258.369 253.284 274.72 269.997C302.706 297.654 330.602 325.386 358.41 353.193C361.977 356.775 363.842 356.674 367.327 353.193C387.537 332.836 407.829 312.48 428.408 292.491C468.009 253.956 515.296 234.882 570.987 239.89C613.56 243.697 649.82 261.61 679.623 292.185C704.219 317.407 719.961 347.147 725.434 381.875C735.17 443.717 717.235 496.765 670.993 539.31C634.385 572.958 590.132 587.472 540.549 583.686C496.521 580.327 459.339 561.294 428.101 530.536C407.74 510.56 387.53 490.448 367.47 470.2C363.678 466.373 361.751 466.536 358.041 470.2C329.98 498.536 301.94 526.628 273.408 554.332C216.631 609.498 120.601 584.012 98.833 508.226C96.2158 498.842 94.9528 489.137 95.082 479.401C95.082 456.724 95.082 434.068 95.082 411.391ZM557.131 315.717C530.218 315.717 508.84 323.025 491.54 339.025C469.833 359.035 449.152 380.144 428.285 401.03C421.644 407.666 422.403 416.501 429.495 423.584C448.619 442.638 467.517 461.895 487.03 480.582C510.725 503.259 539.442 511.91 571.643 506.231C621.513 497.417 657.035 451.086 650.148 398.2C644.408 354.455 604.5 315.025 557.09 315.636L557.131 315.717ZM172.049 411.432C172.049 434.299 172.049 457.159 172.049 480.012C172.049 493.02 177.87 502.404 188.775 506.699C200.663 511.422 210.789 508.45 219.644 499.656C244.937 474.455 270.258 449.294 295.607 424.175C304.113 415.727 304.277 407.646 295.914 399.32C270.333 373.82 244.698 348.368 219.008 322.964C210.297 314.353 199.987 311.829 188.57 316.674C177.153 321.518 171.967 330.577 172.029 342.831C172.111 365.691 172.049 388.613 172.049 411.432Z" fill="#EDEDED"/>
<defs>
<linearGradient id="paint0_linear_1005_2431" x1="413" y1="826" x2="413" y2="0" gradientUnits="userSpaceOnUse">
<stop stop-color="#282828"/>
<stop offset="1" stop-color="#A8A8A8"/>
</linearGradient>
</defs>
</svg>
